<svg id="TCC_logo2" data-name="TCC logo2" xmlns="http://www.w3.org/2000/svg" xmlns:xlink="http://www.w3.org/1999/xlink" width="140" height="54.133" viewBox="0 0 140 54.133">
  <defs>
    <linearGradient id="linear-gradient" x1="0.059" y1="0.161" x2="1.147" y2="0.895" gradientUnits="objectBoundingBox">
      <stop offset="0.168" stop-color="#00d6d6"/>
      <stop offset="0.582" stop-color="#048ce8"/>
      <stop offset="1" stop-color="#0745f9"/>
    </linearGradient>
    <linearGradient id="linear-gradient-2" x1="0.403" y1="0.016" x2="0.662" y2="0.993" gradientUnits="objectBoundingBox">
      <stop offset="0.028" stop-color="#00d6d6"/>
      <stop offset="0.337" stop-color="#048ce8"/>
      <stop offset="0.648" stop-color="#0745f9"/>
    </linearGradient>
  </defs>
  <g id="Group_193065" data-name="Group 193065" transform="translate(59.854 46.234)">
    <path id="Path_192822" data-name="Path 192822" d="M586.906,460.8a2.713,2.713,0,0,1,2.669,1.731h-.9a1.813,1.813,0,0,0-1.767-1.075,2.275,2.275,0,0,0,0,4.538,1.817,1.817,0,0,0,1.767-1.067h.9a2.71,2.71,0,0,1-2.669,1.715,2.921,2.921,0,0,1,0-5.842Z" transform="translate(-584.03 -460.522)" fill="#3f3f3f"/>
    <path id="Path_192823" data-name="Path 192823" d="M648.365,476.693a2.322,2.322,0,1,1,2.323-2.33A2.239,2.239,0,0,1,648.365,476.693Zm0-.656a1.531,1.531,0,0,0,1.553-1.674,1.516,1.516,0,0,0-1.529-1.666,1.679,1.679,0,0,0-.024,3.339Z" transform="translate(-639.316 -470.549)" fill="#3f3f3f"/>
    <path id="Path_192824" data-name="Path 192824" d="M707.305,474c0-.919-.5-1.387-1.24-1.387-.761,0-1.28.484-1.28,1.452v2.478h-.743V474c0-.919-.5-1.387-1.24-1.387-.761,0-1.281.484-1.281,1.452v2.478h-.752v-4.5h.752v.648a1.641,1.641,0,0,1,1.429-.73,1.706,1.706,0,0,1,1.661,1,1.677,1.677,0,0,1,1.6-1,1.746,1.746,0,0,1,1.834,1.928v2.65h-.743V474Z" transform="translate(-687.994 -470.469)" fill="#3f3f3f"/>
    <path id="Path_192825" data-name="Path 192825" d="M788.856,474c0-.919-.5-1.387-1.24-1.387-.761,0-1.28.484-1.28,1.452v2.478h-.743V474c0-.919-.5-1.387-1.24-1.387-.761,0-1.28.484-1.28,1.452v2.478h-.752v-4.5h.752v.648a1.641,1.641,0,0,1,1.429-.73,1.706,1.706,0,0,1,1.661,1,1.677,1.677,0,0,1,1.6-1,1.746,1.746,0,0,1,1.834,1.928v2.65h-.743V474Z" transform="translate(-760.62 -470.469)" fill="#3f3f3f"/>
    <path id="Path_192826" data-name="Path 192826" d="M863.439,472.05a1.881,1.881,0,0,1,1.685.894v-.82h.761v4.5h-.761v-.837a1.893,1.893,0,0,1-1.694.911,2.169,2.169,0,0,1-2.141-2.339A2.138,2.138,0,0,1,863.439,472.05Zm.149.648a1.523,1.523,0,0,0-1.529,1.657,1.538,1.538,0,1,0,1.529-1.657Z" transform="translate(-830.948 -470.549)" fill="#3f3f3f"/>
    <path id="Path_192827" data-name="Path 192827" d="M921.994,474.005a1.212,1.212,0,0,0-1.264-1.387c-.768,0-1.3.476-1.3,1.444v2.486h-.752v-4.5h.752v.64a1.677,1.677,0,0,1,1.454-.723,1.75,1.75,0,0,1,1.851,1.928v2.65h-.743Z" transform="translate(-882.057 -470.478)" fill="#3f3f3f"/>
    <path id="Path_192828" data-name="Path 192828" d="M970.386,459.741a1.979,1.979,0,0,1,1.678.878V458.24h.761v6.071h-.761v-.845a1.861,1.861,0,0,1-1.685.919,2.17,2.17,0,0,1-2.148-2.338A2.137,2.137,0,0,1,970.386,459.741Zm.14.648A1.523,1.523,0,0,0,969,462.045a1.538,1.538,0,1,0,1.529-1.657Z" transform="translate(-926.185 -458.24)" fill="#3f3f3f"/>
    <path id="Path_192829" data-name="Path 192829" d="M1049.846,460.8a2.713,2.713,0,0,1,2.669,1.731h-.9a1.813,1.813,0,0,0-1.768-1.075,2.275,2.275,0,0,0,0,4.538,1.817,1.817,0,0,0,1.768-1.067h.9a2.71,2.71,0,0,1-2.669,1.715,2.921,2.921,0,0,1,0-5.842Z" transform="translate(-996.307 -460.522)" fill="#3f3f3f"/>
    <path id="Path_192830" data-name="Path 192830" d="M1111.279,476.693a2.172,2.172,0,0,1-2.239-2.33,2.146,2.146,0,0,1,2.239-2.314,2.069,2.069,0,0,1,2.173,2.149,3.8,3.8,0,0,1-.025.451h-3.619a1.42,1.42,0,0,0,1.471,1.411,1.244,1.244,0,0,0,1.273-.829h.81A2.036,2.036,0,0,1,1111.279,476.693Zm-1.462-2.649h2.86a1.325,1.325,0,0,0-1.429-1.362A1.4,1.4,0,0,0,1109.817,474.044Z" transform="translate(-1051.585 -470.549)" fill="#3f3f3f"/>
    <path id="Path_192831" data-name="Path 192831" d="M1165.5,474.005a1.213,1.213,0,0,0-1.264-1.387c-.768,0-1.3.476-1.3,1.444v2.486h-.752v-4.5h.752v.64a1.678,1.678,0,0,1,1.454-.723,1.75,1.75,0,0,1,1.851,1.928v2.65h-.743Z" transform="translate(-1098.918 -470.478)" fill="#3f3f3f"/>
    <path id="Path_192832" data-name="Path 192832" d="M1211.037,464.057h-.587v-.615h.587V462.31h.752v1.132h1.182v.615h-1.182v2.65c0,.443.165.6.628.6h.554v.631h-.677c-.8,0-1.255-.328-1.255-1.231v-2.649Z" transform="translate(-1141.897 -461.868)" fill="#3f3f3f"/>
    <path id="Path_192833" data-name="Path 192833" d="M1245.229,476.693a2.172,2.172,0,0,1-2.239-2.33,2.146,2.146,0,0,1,2.239-2.314,2.069,2.069,0,0,1,2.174,2.149,3.725,3.725,0,0,1-.025.451h-3.619a1.42,1.42,0,0,0,1.471,1.411,1.244,1.244,0,0,0,1.273-.829h.81A2.036,2.036,0,0,1,1245.229,476.693Zm-1.462-2.649h2.859a1.325,1.325,0,0,0-1.429-1.362A1.4,1.4,0,0,0,1243.767,474.044Z" transform="translate(-1170.875 -470.549)" fill="#3f3f3f"/>
    <path id="Path_192834" data-name="Path 192834" d="M1296.9,476.539h-.752v-4.5h.752v.73a1.526,1.526,0,0,1,1.462-.813v.772h-.2c-.719,0-1.264.319-1.264,1.362Z" transform="translate(-1218.218 -470.469)" fill="#3f3f3f"/>
  </g>
  <path id="Path_192835" data-name="Path 192835" d="M358.01,230.44h16.572l-1.6,4.141h-4.758v15.682h-5.239V234.581H358.01Z" transform="translate(-321.324 -207.003)" fill="#3f3f3f"/>
  <path id="Path_192836" data-name="Path 192836" d="M497.745,246.109h-6.682l-1.016,3.052H484.54l6.87-18.712h6.041l6.843,18.712H498.76ZM494.4,236.076l-2.005,6.052h4.037Z" transform="translate(-434.884 -207.01)" fill="#3f3f3f"/>
  <path id="Path_192837" data-name="Path 192837" d="M712.229,230.44v14.731h5.854v3.982H706.99V230.44Z" transform="translate(-634.532 -207.003)" fill="#3f3f3f"/>
  <path id="Path_192838" data-name="Path 192838" d="M860.125,234.607h-6.817v3.052h6.014v3.955h-6.014v3.371h6.817v4.167H848.07V230.44h12.056Z" transform="translate(-761.149 -207.003)" fill="#3f3f3f"/>
  <path id="Path_192839" data-name="Path 192839" d="M1021.485,230.44v18.712h-5.239l-6.977-10.457v10.457h-5.239V230.44h5.239l6.977,10.591V230.44Z" transform="translate(-901.123 -207.003)" fill="#3f3f3f"/>
  <path id="Path_192840" data-name="Path 192840" d="M1217.241,230.44h15.236v4.141h-5.026v14.571h-5.239V234.581h-4.973V230.44Z" transform="translate(-1092.478 -207.003)" fill="#3f3f3f"/>
  <path id="Path_192841" data-name="Path 192841" d="M24.784,44.206a21.681,21.681,0,0,1-7.418-10.889c-.807-2.723-.807-10.089-.807-11.85V.17H10.844L10.9,21.788H.11v5.925H10.9a31.284,31.284,0,0,0,3.965,14.332c2.9,4.8,5.806,7.206,11.612,10.249a31.29,31.29,0,0,0,11.531,2V48.768S30.348,48.929,24.784,44.206Z" transform="translate(-0.11 -0.17)" fill="url(#linear-gradient)"/>
  <g id="Group_193066" data-name="Group 193066" transform="translate(10.806 0.8)">
    <path id="Path_192842" data-name="Path 192842" d="M153.714,18.7l-3.887,3.063a21.382,21.382,0,0,0-7.726-6.52,22.026,22.026,0,0,0-9.892-2.165c-3.933,0-13.708,2.242-18.223,10.889a20.838,20.838,0,0,0-2.58,10.729,20.049,20.049,0,0,0,6.128,15.053,20.049,20.049,0,0,0,15.159,6.085A21.407,21.407,0,0,0,143,53.288c.194-.1.387-.211.579-.32.04.046,6.468.046,6.468.046s-1.677,4.162-7.5,6.394a28.552,28.552,0,0,1-10.338,1.866c-8.625,0-15.44-3.027-20.422-8.923A27.12,27.12,0,0,1,105.52,34.32a25.4,25.4,0,0,1,7.591-18.7,25.805,25.805,0,0,1,19.02-7.588,27.319,27.319,0,0,1,12.468,2.8A24.383,24.383,0,0,1,153.714,18.7Z" transform="translate(-105.52 -8.03)" fill="url(#linear-gradient-2)"/>
  </g>
  <path id="Path_192843" data-name="Path 192843" d="M243.412,122.256a31.56,31.56,0,0,0-2.15-3.243c-.965-1.137-4.893-6.29-14.443-5.5-10,1.281-15,10.729-13.708,18.576.147,2.4,2.258,7.045,6.29,10.089a14.321,14.321,0,0,0,9.6,2.983v-5.772a10.242,10.242,0,0,1-6.853-2.336c-3.548-2.723-3.71-7.366-3.548-9.448a10.305,10.305,0,0,1,6.128-8.006c6.843-2.224,10.615.986,11.981,2.568.063.072.171.206.171.206Z" transform="translate(-191.098 -101.902)" fill="#0745f9"/>
</svg>
